HIERARCHY
ROOT Hips
{
	OFFSET 0.00000 0.00000 0.00000
	CHANNELS 6 Xposition Yposition Zposition Zrotation Yrotation Xrotation 
	JOINT LHipJoint
	{
		OFFSET 0 0 0
		CHANNELS 3 Zrotation Yrotation Xrotation
		JOINT LeftUpLeg
		{
			OFFSET 1.51378 -1.89840 0.47569
			CHANNELS 3 Zrotation Yrotation Xrotation
			JOINT LeftLeg
			{
				OFFSET 2.53380 -6.96157 0.00000
				CHANNELS 3 Zrotation Yrotation Xrotation
				JOINT LeftFoot
				{
					OFFSET 2.74874 -7.55212 0.00000
					CHANNELS 3 Zrotation Yrotation Xrotation
					JOINT LeftToeBase
					{
						OFFSET 0.18263 -0.50178 1.99677
						CHANNELS 3 Zrotation Yrotation Xrotation
						End Site
						{
							OFFSET 0.00000 -0.00000 1.03711
						}
					}
				}
			}
		}
	}
	JOINT RHipJoint
	{
		OFFSET 0 0 0
		CHANNELS 3 Zrotation Yrotation Xrotation
		JOINT RightUpLeg
		{
			OFFSET -1.43037 -1.89840 0.47569
			CHANNELS 3 Zrotation Yrotation Xrotation
			JOINT RightLeg
			{
				OFFSET -2.69849 -7.41406 0.00000
				CHANNELS 3 Zrotation Yrotation Xrotation
				JOINT RightFoot
				{
					OFFSET -2.69369 -7.40087 0.00000
					CHANNELS 3 Zrotation Yrotation Xrotation
					JOINT RightToeBase
					{
						OFFSET -0.28932 -0.79491 2.04975
						CHANNELS 3 Zrotation Yrotation Xrotation
						End Site
						{
							OFFSET 0.00009 0.00010 1.09536
						}
					}
				}
			}
		}
	}
	JOINT LowerBack
	{
		OFFSET 0 0 0
		CHANNELS 3 Zrotation Yrotation Xrotation
		JOINT Spine
		{
			OFFSET 0.01912 1.94784 -0.02419
			CHANNELS 3 Zrotation Yrotation Xrotation
			JOINT Spine1
			{
				OFFSET 0.07565 1.94258 0.01909
				CHANNELS 3 Zrotation Yrotation Xrotation
				JOINT Neck
				{
					OFFSET 0 0 0
					CHANNELS 3 Zrotation Yrotation Xrotation
					JOINT Neck1
					{
						OFFSET -0.07010 1.86195 0.18976
						CHANNELS 3 Zrotation Yrotation Xrotation
						JOINT Head
						{
							OFFSET 0.02284 1.86595 -0.31497
							CHANNELS 3 Zrotation Yrotation Xrotation
							End Site
							{
								OFFSET 0.01200 1.90122 -0.12838
							}
						}
					}
				}
				JOINT LeftShoulder
				{
					OFFSET 0 0 0
					CHANNELS 3 Zrotation Yrotation Xrotation
					JOINT LeftArm
					{
						OFFSET 3.39189 0.96331 -0.10437
						CHANNELS 3 Zrotation Yrotation Xrotation
						JOINT LeftForeArm
						{
							OFFSET 5.14845 -0.00000 0.00000
							CHANNELS 3 Zrotation Yrotation Xrotation
							JOINT LeftHand
							{
								OFFSET 3.43674 -0.00000 -0.00000
								CHANNELS 3 Zrotation Yrotation Xrotation
								JOINT LeftFingerBase
								{
									OFFSET 0 0 0
									CHANNELS 3 Zrotation Yrotation Xrotation
									JOINT LeftHandIndex1
									{
										OFFSET 0.58871 -0.00000 0.00000
										CHANNELS 3 Zrotation Yrotation Xrotation
										End Site
										{
											OFFSET 0.47463 -0.00000 0.00000
										}
									}
								}
								JOINT LThumb
								{
									OFFSET 0 0 0
									CHANNELS 3 Zrotation Yrotation Xrotation
									End Site
									{
										OFFSET 0.48188 -0.00000 0.48188
									}
								}
							}
						}
					}
				}
				JOINT RightShoulder
				{
					OFFSET 0 0 0
					CHANNELS 3 Zrotation Yrotation Xrotation
					JOINT RightArm
					{
						OFFSET -3.34934 1.18831 -0.19928
						CHANNELS 3 Zrotation Yrotation Xrotation
						JOINT RightForeArm
						{
							OFFSET -5.42185 -0.00000 0.00000
							CHANNELS 3 Zrotation Yrotation Xrotation
							JOINT RightHand
							{
								OFFSET -3.51317 -0.00000 -0.00000
								CHANNELS 3 Zrotation Yrotation Xrotation
								JOINT RightFingerBase
								{
									OFFSET 0 0 0
									CHANNELS 3 Zrotation Yrotation Xrotation
									JOINT RightHandIndex1
									{
										OFFSET -0.66319 -0.00000 0.00000
										CHANNELS 3 Zrotation Yrotation Xrotation
										End Site
										{
											OFFSET -0.53468 -0.00000 0.00000
										}
									}
								}
								JOINT RThumb
								{
									OFFSET 0 0 0
									CHANNELS 3 Zrotation Yrotation Xrotation
									End Site
									{
										OFFSET -0.54284 -0.00000 0.54284
									}
								}
							}
						}
					}
				}
			}
		}
	}
}
MOTION
Frames: 8
Frame Time: 0.0166666
3.1709 18.0888 -4.3123 -19.9284 -82.9798 29.0204 0.0000 0.0000 0.0000 -17.8446 -7.2663 -17.0070 2.0693 9.0090 25.8236 0.7372 3.0051 -17.5801 0.4490 -4.2989 -11.9192 0.0000 0.0000 0.0000 23.6556 7.5003 -21.6965 -3.6320 -11.6539 34.5183 -1.3832 -7.7707 -26.2487 -0.0185 0.8792 -2.4165 1.5181 3.2040 3.6475 5.1575 4.0437 4.3113 4.3985 1.9114 2.1357 4.6025 14.1161 -3.9584 -4.7072 19.1561 11.6114 -0.9634 9.3461 5.0431 0.0000 -0.0000 0.0000 -90.6497 -2.4134 24.9522 17.5159 -27.5329 -4.3231 -0.0000 0.0000 -2.4484 20.3719 21.9349 7.8974 -7.1250 0.0000 -0.0000 -8.7784 53.0151 -1.7417 0.0000 -0.0000 0.0000 83.8548 -2.6490 13.2404 -22.2372 33.2441 -6.7154 0.0000 -0.0000 -2.9863 -26.7134 13.2499 -6.5796 7.1250 -0.0000 -0.0000 0.4364 -15.2126 0.3066
3.1339 18.0848 -4.3483 -19.8598 -82.9852 28.7974 0.0000 0.0000 0.0000 -17.7305 -7.4278 -16.7861 2.1078 9.0872 26.0685 0.7343 3.2561 -17.6876 0.4318 -4.2171 -11.6883 0.0000 0.0000 0.0000 23.8604 7.2760 -21.4450 -3.6197 -11.6364 34.4577 -1.3581 -7.9050 -26.1545 -0.0370 1.2408 -3.4117 1.5139 3.2111 3.5237 5.0869 4.0621 4.1904 4.3290 1.9256 2.0828 4.9291 14.1176 -3.7352 -4.6967 19.1437 11.7894 -1.0120 9.3528 5.0916 -0.0000 0.0000 0.0000 -90.7025 -2.3147 24.7578 17.4474 -27.4439 -4.2915 -0.0000 0.0000 -2.2974 20.2868 22.0413 7.8977 -7.1250 0.0000 -0.0000 -8.9034 53.1088 -1.7873 -0.0000 0.0000 0.0000 83.8211 -2.7806 13.5262 -22.3612 33.3829 -6.7835 0.0000 -0.0000 -3.2833 -26.9676 13.1013 -6.5791 7.1250 -0.0000 -0.0000 0.2505 -15.3453 0.1753
3.0953 18.0819 -4.3855 -19.2479 -83.0789 27.8774 0.0000 0.0000 0.0000 -17.7596 -7.4593 -16.2646 2.1199 9.1116 26.1449 0.7341 3.5182 -17.8358 0.4775 -4.4313 -12.2934 0.0000 0.0000 0.0000 23.9634 7.2170 -20.9501 -3.6232 -11.6413 34.4747 -1.3798 -7.9959 -26.3778 -0.0357 1.2199 -3.3541 1.2997 3.2035 3.4584 5.1226 4.0477 4.1820 4.4899 1.9134 2.0940 4.9336 14.1469 -3.6924 -4.6154 19.1857 12.0675 -0.9781 9.3719 5.1657 -0.0000 -0.0000 0.0000 -90.8851 -2.2065 24.8292 17.4795 -27.4856 -4.3063 -0.0000 0.0000 -2.4576 20.1594 22.0691 7.8537 -7.1250 0.0000 -0.0000 -9.0422 53.1139 -1.8166 -0.0000 -0.0000 0.0000 83.6517 -2.7634 13.4666 -22.4878 33.5239 -6.8533 0.0000 -0.0000 -3.4115 -26.4559 13.1579 -6.4627 7.1250 -0.0000 -0.0000 0.6057 -15.3462 0.4238
3.0540 18.0778 -4.4216 -18.9035 -83.0118 27.3938 0.0000 0.0000 0.0000 -17.6663 -7.4911 -15.9454 2.1203 9.1123 26.1471 0.7287 3.7036 -17.8870 0.5816 -4.8832 -13.5757 0.0000 0.0000 0.0000 24.1025 7.1911 -20.6605 -3.6294 -11.6501 34.5053 -1.4313 -7.8394 -26.6476 -0.0183 0.8736 -2.4010 1.2619 3.1333 3.3138 5.1255 3.9617 4.0198 4.5177 1.8738 2.0096 4.8724 14.1757 -3.5357 -4.4995 19.2253 12.2487 -0.9396 9.3936 5.1812 0.0000 -0.0000 0.0000 -91.1180 -1.9866 24.5634 17.4978 -27.5094 -4.3148 -0.0000 0.0000 -2.3379 19.9050 22.1260 7.7661 -7.1250 0.0000 -0.0000 -9.3201 53.1253 -1.8758 0.0000 -0.0000 0.0000 83.6795 -2.8967 13.4664 -22.6213 33.6720 -6.9272 0.0000 -0.0000 -3.7929 -27.2028 13.2917 -6.7395 7.1250 -0.0000 -0.0000 0.1049 -15.1046 0.0740
3.0193 18.0792 -4.4613 -17.1259 -83.0008 25.3890 0.0000 0.0000 0.0000 -17.7735 -7.0546 -15.6463 2.0952 9.0617 25.9884 0.7420 3.2548 -17.7701 0.5845 -4.8954 -13.6103 0.0000 0.0000 0.0000 24.0619 6.9913 -20.3363 -3.6389 -11.6637 34.5524 -1.4896 -7.5996 -26.9084 -0.0085 0.5946 -1.6340 1.0751 3.1368 3.2693 5.0667 3.9716 3.9621 4.5610 1.8785 1.9650 4.8811 14.1371 -3.5055 -4.5553 19.1828 12.2629 -0.9617 9.3701 5.1850 0.0000 0.0000 0.0000 -91.2422 -1.9474 24.8198 17.4976 -27.5090 -4.3146 -0.0000 0.0000 -2.4671 19.9964 21.8833 7.7240 -7.1250 0.0000 -0.0000 -9.1373 52.8938 -1.7866 0.0000 0.0000 0.0000 83.6128 -2.9265 13.2136 -22.7605 33.8259 -7.0045 0.0000 -0.0000 -3.5390 -26.8060 12.6581 -6.3181 7.1250 -0.0000 -0.0000 0.3270 -15.8557 0.2252
2.9843 18.0890 -4.4982 -12.9341 -83.1616 20.8649 0.0000 0.0000 0.0000 -18.2794 -7.2066 -15.0620 2.0993 9.0700 26.0144 0.7365 3.3873 -17.7860 0.5266 -4.6504 -12.9140 0.0000 0.0000 0.0000 23.6635 7.1033 -19.6455 -3.6063 -11.6172 34.3909 -1.4879 -7.8148 -27.0387 -0.0064 0.5181 -1.4236 0.4362 3.0789 3.3449 4.9704 3.9011 3.9078 4.8140 1.8358 1.8348 4.8286 14.2317 -3.4809 -4.5132 19.3242 12.5786 -0.9206 9.4317 5.2772 -0.0000 0.0000 0.0000 -91.5080 -1.8073 24.5625 17.5439 -27.5692 -4.3361 -0.0000 0.0000 -2.3350 19.6998 22.0774 7.6645 -7.1250 0.0000 -0.0000 -9.5084 53.0381 -1.8939 -0.0000 0.0000 0.0000 83.4110 -3.2815 13.6796 -23.2618 34.3739 -7.2856 0.0000 -0.0000 -3.8431 -26.6303 12.2844 -6.0896 7.1250 -0.0000 -0.0000 0.4202 -16.2898 0.2855
2.9495 18.0856 -4.5294 -19.6833 -82.8899 27.4984 0.0000 0.0000 0.0000 -17.1845 -7.3182 -14.9294 2.1281 9.1279 26.1962 0.7279 3.6519 -17.8473 0.5374 -4.6972 -13.0468 0.0000 0.0000 0.0000 24.8094 7.0147 -19.2790 -3.5465 -11.5311 34.0927 -1.4855 -7.8393 -27.0381 -0.0083 0.5885 -1.6173 1.6560 3.1517 3.0696 4.9288 4.0047 3.8180 4.0975 1.9131 1.9750 5.0752 14.1630 -3.6363 -4.2144 19.1662 12.5635 -0.8687 9.3790 5.2841 -0.0000 -0.0000 0.0000 -91.1418 -1.8699 25.0529 17.5859 -27.6237 -4.3555 -0.0000 0.0000 -2.5921 19.9840 21.7984 7.6907 -7.1250 0.0000 -0.0000 -9.1184 52.8045 -1.7629 -0.0000 -0.0000 0.0000 83.9371 -3.2384 13.1518 -23.3891 34.5115 -7.3575 0.0000 -0.0000 -3.5915 -26.6399 12.1073 -6.0063 7.1250 -0.0000 -0.0000 0.4007 -16.4847 0.2705
2.9133 18.0888 -4.5649 -17.9856 -82.8486 25.7595 0.0000 0.0000 0.0000 -17.2695 -7.2778 -14.6978 2.1093 9.0901 26.0777 0.7296 3.5891 -17.8292 0.5589 -4.7885 -13.3062 0.0000 0.0000 0.0000 24.7628 6.9414 -19.0172 -3.5154 -11.4860 33.9370 -1.5262 -7.7452 -27.2648 -0.0007 0.1718 -0.4719 1.4243 3.1063 2.8380 4.9208 3.9492 3.6353 4.2256 1.8854 1.9032 4.7503 14.1431 -3.5436 -3.9601 19.1342 12.5991 -0.7656 9.3653 5.2221 0.0000 0.0000 0.0000 -91.3824 -1.7924 25.0609 17.5602 -27.5904 -4.3436 -0.0000 0.0000 -2.4742 19.9803 21.9760 7.7480 -7.1250 0.0000 -0.0000 -9.1880 52.9857 -1.8174 0.0000 0.0000 0.0000 83.8031 -3.1017 12.9330 -23.0053 34.0946 -7.1412 0.0000 -0.0000 -3.7089 -26.8157 12.1445 -6.0701 7.1250 -0.0000 -0.0000 0.2817 -16.4232 0.1906
